<?xml version="1.0" encoding="UTF-8" standalone="yes"?><svg xmlns="http://www.w3.org/2000/svg" xmlns:xlink="http://www.w3.org/1999/xlink" height="735pt" style="width:322px;height:735px;" version="1.1" viewBox="0 0 322 735" width="322pt"><defs><filter height="300%" id="f1" width="300%" x="-1" y="-1"><feGaussianBlur result="blurOut" stdDeviation="2.0"/><feColorMatrix in="blurOut" result="blurOut2" type="matrix" values="0 0 0 0 0 0 0 0 0 0 0 0 0 0 0 0 0 0 .4 0"/><feOffset dx="4.0" dy="4.0" in="blurOut2" result="blurOut3"/><feBlend in="SourceGraphic" in2="blurOut3" mode="normal"/></filter></defs><g><ellipse cx="235" cy="18" fill="#000000" filter="url(#f1)" rx="10" ry="10" style="stroke: none; stroke-width: 1.0;"/><rect fill="#FEFECE" filter="url(#f1)" height="34.1328" rx="12.5" ry="12.5" style="stroke: #A80036; stroke-width: 1.5;" width="128" x="171" y="69"/><text fill="#000000" font-family="sans-serif" font-size="12" lengthAdjust="spacingAndGlyphs" textLength="108" x="181" y="90.6016">按协议构建查询请求</text><rect fill="#FEFECE" filter="url(#f1)" height="34.1328" rx="12.5" ry="12.5" style="stroke: #A80036; stroke-width: 1.5;" width="116" x="177" y="144"/><text fill="#000000" font-family="sans-serif" font-size="12" lengthAdjust="spacingAndGlyphs" textLength="96" x="187" y="165.6016">向天气网请求数据</text><polygon fill="#FEFECE" filter="url(#f1)" points="235,219,247,231,235,243,223,231,235,219" style="stroke: #A80036; stroke-width: 1.5;"/><rect fill="#FEFECE" filter="url(#f1)" height="34.1328" rx="12.5" ry="12.5" style="stroke: #A80036; stroke-width: 1.5;" width="236" x="6" y="300"/><text fill="#000000" font-family="sans-serif" font-size="12" lengthAdjust="spacingAndGlyphs" textLength="216" x="16" y="321.6016">按协议解析返回数据，获得预报天气信息</text><rect fill="#FEFECE" filter="url(#f1)" height="34.1328" rx="12.5" ry="12.5" style="stroke: #A80036; stroke-width: 1.5;" width="92" x="119" y="408"/><text fill="#000000" font-family="sans-serif" font-size="12" lengthAdjust="spacingAndGlyphs" textLength="72" x="129" y="429.6016">更新内存缓存</text><rect fill="#FEFECE" filter="url(#f1)" height="34.1328" rx="12.5" ry="12.5" style="stroke: #A80036; stroke-width: 1.5;" width="104" x="119" y="483"/><text fill="#000000" font-family="sans-serif" font-size="12" lengthAdjust="spacingAndGlyphs" textLength="84" x="129" y="504.6016">更新持久化缓存</text><rect fill="#FEFECE" filter="url(#f1)" height="34.1328" rx="12.5" ry="12.5" style="stroke: #A80036; stroke-width: 1.5;" width="68" x="151" y="558"/><text fill="#000000" font-family="sans-serif" font-size="12" lengthAdjust="spacingAndGlyphs" textLength="48" x="161" y="579.6016">更新成功</text><rect fill="#FEFECE" filter="url(#f1)" height="34.1328" rx="12.5" ry="12.5" style="stroke: #A80036; stroke-width: 1.5;" width="164" x="149" y="633"/><text fill="#000000" font-family="sans-serif" font-size="12" lengthAdjust="spacingAndGlyphs" textLength="144" x="159" y="654.6016">调用回调通知上层更新情况</text><rect fill="#FEFECE" filter="url(#f1)" height="34.1328" rx="12.5" ry="12.5" style="stroke: #A80036; stroke-width: 1.5;" width="68" x="237" y="354"/><text fill="#000000" font-family="sans-serif" font-size="12" lengthAdjust="spacingAndGlyphs" textLength="48" x="247" y="375.6016">更新失败</text><ellipse cx="231" cy="718" fill="none" filter="url(#f1)" rx="10" ry="10" style="stroke: #000000; stroke-width: 1.0;"/><ellipse cx="231.5" cy="718.5" fill="#000000" rx="6" ry="6" style="stroke: none; stroke-width: 1.0;"/><path d="M235,28.177 C235,37.269 235,51.527 235,63.485 " fill="none" style="stroke: #A80036; stroke-width: 1.0;"/><polygon fill="#A80036" points="235,68.791,239,59.791,235,63.791,231,59.791,235,68.791" style="stroke: #A80036; stroke-width: 1.0;"/><path d="M235,103.201 C235,113.692 235,127.463 235,138.818 " fill="none" style="stroke: #A80036; stroke-width: 1.0;"/><polygon fill="#A80036" points="235,143.844,239,134.844,235,138.844,231,134.844,235,143.844" style="stroke: #A80036; stroke-width: 1.0;"/><path d="M235,178.115 C235,188.916 235,203.082 235,213.883 " fill="none" style="stroke: #A80036; stroke-width: 1.0;"/><polygon fill="#A80036" points="235,218.885,239,209.885,235,213.885,231,209.885,235,218.885" style="stroke: #A80036; stroke-width: 1.0;"/><text fill="#000000" font-family="sans-serif" font-size="13" lengthAdjust="spacingAndGlyphs" textLength="158" x="56.7563" y="211.4668">HTTP正确返回 且 数据正常</text><path d="M228.714,236.757 C213.739,248.09 175.274,277.198 149.372,296.8 " fill="none" style="stroke: #A80036; stroke-width: 1.0;"/><polygon fill="#A80036" points="145.328,299.86,154.9185,297.6189,149.3151,296.8429,150.0911,291.2395,145.328,299.86" style="stroke: #A80036; stroke-width: 1.0;"/><text fill="#000000" font-family="sans-serif" font-size="13" lengthAdjust="spacingAndGlyphs" textLength="22" x="194" y="276.5684">Yes</text><path d="M130.227,334.099 C137.361,352.544 149.074,382.825 156.909,403.082 " fill="none" style="stroke: #A80036; stroke-width: 1.0;"/><polygon fill="#A80036" points="158.714,407.749,159.2002,397.9122,156.9114,403.0853,151.7382,400.7964,158.714,407.749" style="stroke: #A80036; stroke-width: 1.0;"/><path d="M166.332,442.201 C167.194,452.692 168.326,466.463 169.259,477.818 " fill="none" style="stroke: #A80036; stroke-width: 1.0;"/><polygon fill="#A80036" points="169.672,482.844,172.9233,473.5473,169.2635,477.8607,164.9501,474.2009,169.672,482.844" style="stroke: #A80036; stroke-width: 1.0;"/><path d="M174.107,517.201 C176.119,527.692 178.76,541.463 180.938,552.818 " fill="none" style="stroke: #A80036; stroke-width: 1.0;"/><polygon fill="#A80036" points="181.902,557.844,184.1357,548.2518,180.9605,552.9334,176.2788,549.7582,181.902,557.844" style="stroke: #A80036; stroke-width: 1.0;"/><path d="M195.209,592.201 C201.939,602.881 210.81,616.96 218.037,628.429 " fill="none" style="stroke: #A80036; stroke-width: 1.0;"/><polygon fill="#A80036" points="220.82,632.8442,219.4072,623.0972,218.1549,628.6137,212.6384,627.3614,220.82,632.8442" style="stroke: #A80036; stroke-width: 1.0;"/><path d="M237.362,241.055 C243.011,262.708 257.424,317.96 265.429,348.645 " fill="none" style="stroke: #A80036; stroke-width: 1.0;"/><polygon fill="#A80036" points="266.751,353.713,268.3478,343.9944,265.488,348.8752,260.6073,346.0153,266.751,353.713" style="stroke: #A80036; stroke-width: 1.0;"/><text fill="#000000" font-family="sans-serif" font-size="13" lengthAdjust="spacingAndGlyphs" textLength="18" x="247" y="276.5684">No</text><path d="M266.372,388.105 C261.647,405.996 255,435.815 255,462 C255,462 255,462 255,576 C255,594.339 248.08,614.031 241.672,628.3353 " fill="none" style="stroke: #A80036; stroke-width: 1.0;"/><polygon fill="#A80036" points="239.529,632.9701,246.9372,626.4803,241.6277,628.4319,239.6761,623.1223,239.529,632.9701" style="stroke: #A80036; stroke-width: 1.0;"/><path d="M231,667.3146 C231,678.2368 231,692.4683 231,702.8993 " fill="none" style="stroke: #A80036; stroke-width: 1.0;"/><polygon fill="#A80036" points="231,707.97,235,698.97,231,702.97,227,698.97,231,707.97" style="stroke: #A80036; stroke-width: 1.0;"/></g></svg>